<!-- icon666.com - MILLIONS vector ICONS FREE --><svg viewBox="-23 0 447 447.81616" xmlns="http://www.w3.org/2000/svg"><path d="m210.640625 191.816406h.214844c6.886719-.0625 13.414062-3.082031 17.921875-8.289062l80.734375-93.191406c13.984375-16.15625 17.261719-38.984376 8.382812-58.421876-8.878906-19.4375-28.277343-31.9062495-49.644531-31.914062h-3.042969c-16.589843-.0390625-32.289062 7.507812-42.621093 20.488281l-11.730469 14.710938-11.765625-14.710938c-10.335938-12.980469-26.035156-20.5273435-42.625-20.488281h-4.527344c-15.707031.00390625-30.648438 6.765625-41.015625 18.558594l-.929687 1.066406c-18.25 20.785156-18.078126 51.933594.398437 72.519531l82.402344 91.710938c4.550781 5.066406 11.039062 7.960937 17.847656 7.960937zm-88.34375-110.359375c-13.050781-14.546875-13.175781-36.550781-.289063-51.242187l.921876-1.0625c7.332031-8.332032 17.890624-13.109375 28.992187-13.113282h4.527344c11.730469-.027343 22.828125 5.308594 30.136719 14.488282l18.007812 22.511718c1.570312 1.8125 3.847656 2.851563 6.246094 2.851563 2.398437 0 4.675781-1.039063 6.25-2.851563l18.007812-22.511718c7.289063-9.1875 18.382813-14.539063 30.109375-14.527344h3c15.109375 0 28.828125 8.816406 35.105469 22.558594 6.277344 13.746094 3.957031 29.886718-5.9375 41.304687l-80.6875 93.183594c-1.496094 1.746094-3.675781 2.757813-5.976562 2.769531-2.292969.023438-4.488282-.941406-6.023438-2.648437zm0 0" fill="#000000" style="fill: rgb(255, 255, 255);"></path><path d="m352.40625 119.816406c-17.671875 0-32 14.328125-32 32v4.449219c-4.839844-2.882813-10.363281-4.417969-16-4.449219-17.671875 0-32 14.328125-32 32v60.558594c-.292969.152344-.578125.324219-.855469.511719-.480469.21875-.9375.488281-1.367187.800781-.039063 0-.085938.039062-.128906.074219l-45.726563 41.023437c-6.535156 5.898438-11.933594 12.949219-15.921875 20.800782-3.984375-7.851563-9.382812-14.902344-15.917969-20.800782l-45.726562-41.015625s-.089844-.042969-.128907-.074219c-.441406-.3125-.910156-.578124-1.402343-.800781-.253907-.175781-.523438-.335937-.796875-.476562v-60.601563c0-17.671875-14.328125-32-32-32-5.636719.03125-11.160156 1.566406-16 4.449219v-4.449219c0-17.671875-14.328125-32-32-32-17.675782 0-32 14.328125-32 32v118.679688c0 7.609375 2.167968 15.0625 6.253906 21.480468l49.71875 78.167969v69.671875c0 4.417969 3.582031 8 8 8h224c4.421875 0 8-3.582031 8-8v-69.671875l49.746094-78.167969c4.085937-6.417968 6.257812-13.871093 6.253906-21.480468v-118.679688c0-17.671875-14.324219-32-32-32zm-256 64c0-8.835937 7.164062-16 16-16 8.839844 0 16 7.164063 16 16v59.671875c-9.273438 1.9375-17.101562 8.109375-21.140625 16.679688l-10.859375-14.953125zm104 160v88h-96v-64c.003906-1.523437-.429688-3.011718-1.246094-4.296875l-51-80.144531c-2.453125-3.847656-3.757812-8.316406-3.753906-12.878906v-118.679688c0-8.835937 7.164062-16 16-16 8.839844 0 16 7.164063 16 16v96c.015625.96875.210938 1.925782.570312 2.824219.128907.273437.273438.542969.429688.800781.152344.359375.328125.707032.53125 1.039063l26.398438 36.304687.0625.054688c.742187 1.339844 1.585937 2.621094 2.523437 3.832031l19.277344 24.105469c.730469.890625 1.648437 1.617187 2.6875 2.117187.320312.125.644531.226563.976562.304688.707031.269531 1.449219.433593 2.199219.488281.128906 0 .257812.089844.386719.089844.476562-.039063.949219-.117188 1.414062-.234375.316407-.03125.628907-.085938.9375-.160157.960938-.28125 1.859375-.742187 2.648438-1.359374 3.449219-2.761719 4.007812-7.796876 1.246093-11.246094l-19.277343-24.097656c-2.703125-3.347657-3.796875-7.707032-3.003907-11.933594.796876-4.226563 3.40625-7.890625 7.136719-10.027344.304688-.175781.632813-.269531.945313-.421875.804687-.414063 1.644531-.753906 2.511718-1.007813.433594-.121093.871094-.160156 1.3125-.242187.777344-.148437 1.566407-.238281 2.359376-.261719.503906 0 1.007812.046875 1.511718.085938.539063.058594 1.070313.144531 1.601563.257812l44.054687 39.519532c11.824219 10.648437 18.570313 25.816406 18.558594 41.726562zm88-104v-56c0-8.835937 7.164062-16 16-16 8.839844 0 16 7.164063 16 16v61.398438l-10.855469 14.945312c-4.035156-8.570312-11.867187-14.742187-21.144531-16.664062zm80 30.679688c.007812 4.5625-1.296875 9.03125-3.75 12.878906l-51 80.144531c-.816406 1.285157-1.25 2.773438-1.25 4.296875v64h-96v-91.441406c.015625-15.902344 6.773438-31.054688 18.601562-41.6875l44.0625-39.519531c.503907-.109375 1.015626-.191407 1.53125-.238281.546876-.0625 1.097657-.097657 1.648438-.105469.695312.03125 1.390625.113281 2.078125.238281.539063.066406 1.074219.164062 1.601563.289062.765624.238282 1.511718.539063 2.230468.898438.398438.183594.800782.308594 1.191406.527344 1.101563.636718 2.117188 1.410156 3.023438 2.304687 5.316406 5.304688 5.789062 13.765625 1.089844 19.628907l-19.289063 24.105468c-2.761719 3.449219-2.203125 8.488282 1.25 11.246094.785157.621094 1.679688 1.082031 2.636719 1.363281.316406.070313.632812.125.953125.160157.457031.113281.921875.191406 1.390625.230468.128906 0 .25-.082031.386719-.089844.746093-.050781 1.484375-.214843 2.183593-.488281.339844-.074219.675782-.175781 1-.300781 1.035157-.507812 1.949219-1.230469 2.679688-2.121094l19.289062-24.113281c.929688-1.207031 1.769532-2.484375 2.511719-3.816406l.0625-.0625 26.359375-36.304688c.203125-.332031.378906-.679687.527344-1.039062.160156-.257813.304688-.523438.433594-.800781.363281-.910157.558594-1.882813.566406-2.863282v-96c0-8.835937 7.164062-16 16-16 8.839844 0 16 7.164063 16 16zm0 0" fill="#000000" style="fill: rgb(255, 255, 255);"></path><path d="m352.40625 39.816406h16v16h-16zm0 0" fill="#000000" style="fill: rgb(255, 255, 255);"></path><path d="m384.40625 39.816406h16v16h-16zm0 0" fill="#000000" style="fill: rgb(255, 255, 255);"></path><path d="m368.40625 23.816406h16v16h-16zm0 0" fill="#000000" style="fill: rgb(255, 255, 255);"></path><path d="m368.40625 55.816406h16v16h-16zm0 0" fill="#000000" style="fill: rgb(255, 255, 255);"></path><path d="m.40625 63.816406h16v16h-16zm0 0" fill="#000000" style="fill: rgb(255, 255, 255);"></path><path d="m48.40625 63.816406h16v16h-16zm0 0" fill="#000000" style="fill: rgb(255, 255, 255);"></path><path d="m24.40625 39.816406h16v16h-16zm0 0" fill="#000000" style="fill: rgb(255, 255, 255);"></path><path d="m24.40625 87.816406h16v16h-16zm0 0" fill="#000000" style="fill: rgb(255, 255, 255);"></path></svg>