<!-- icon666.com - MILLIONS vector ICONS FREE --><svg viewBox="-21 -21 682.66669 682.66669" xmlns="http://www.w3.org/2000/svg"><path d="m320 237.5c44.800781 0 81.25-36.449219 81.25-81.25s-36.449219-81.25-81.25-81.25-81.25 36.449219-81.25 81.25 36.449219 81.25 81.25 81.25zm0-125c24.125 0 43.75 19.625 43.75 43.75s-19.625 43.75-43.75 43.75-43.75-19.625-43.75-43.75 19.625-43.75 43.75-43.75zm0 0" fill="#000000" style="fill: rgb(255, 255, 255);"></path><path d="m320 312.5c86.15625 0 156.25-70.09375 156.25-156.25s-70.09375-156.25-156.25-156.25-156.25 70.09375-156.25 156.25 70.09375 156.25 156.25 156.25zm0-275c65.476562 0 118.75 53.273438 118.75 118.75s-53.273438 118.75-118.75 118.75-118.75-53.273438-118.75-118.75 53.273438-118.75 118.75-118.75zm0 0" fill="#000000" style="fill: rgb(255, 255, 255);"></path><path d="m583.75 58.75c-31.015625 0-56.25 25.234375-56.25 56.25v153.222656c-19.789062-6.957031-42.726562-2.550781-58.523438 13.253906l-140.320312 140.316407c-3.144531 3.144531-6.023438 6.484375-8.65625 9.980469-2.632812-3.496094-5.511719-6.835938-8.65625-9.980469l-140.320312-140.316407c-15.796876-15.796874-38.734376-20.210937-58.523438-13.253906v-153.222656c0-31.015625-25.234375-56.25-56.25-56.25s-56.25 25.234375-56.25 56.25v272.816406l112.5 182.5v69.683594h415v-69.683594l112.5-182.5v-272.816406c0-31.015625-25.234375-56.25-56.25-56.25zm-546.25 318.433594v-262.183594c0-10.335938 8.414062-18.75 18.75-18.75s18.75 8.414062 18.75 18.75v206.875c.175781 14.789062 6 28.671875 16.476562 39.148438l140.273438 140.269531 26.511719-26.511719-140.269531-140.273438c-7.308594-7.3125-7.308594-19.203124 0-26.515624 7.3125-7.308594 19.203124-7.308594 26.515624 0l140.316407 140.320312c10.589843 10.589844 16.425781 24.730469 16.425781 39.8125v114.375h-151.25v-42.816406zm565 0-112.5 182.5v42.816406h-151.25v-114.375c0-15.082031 5.835938-29.222656 16.425781-39.8125l140.316407-140.320312c7.3125-7.308594 19.203124-7.308594 26.515624 0 3.542969 3.539062 5.492188 8.25 5.492188 13.257812s-1.949219 9.71875-5.492188 13.261719l-140.269531 140.269531 26.511719 26.511719 140.273438-140.269531c10.808593-10.804688 16.277343-24.953126 16.433593-39.148438.042969 0 .042969-206.875.042969-206.875 0-10.335938 8.414062-18.75 18.75-18.75s18.75 8.414062 18.75 18.75zm0 0" fill="#000000" style="fill: rgb(255, 255, 255);"></path></svg>